<svg viewBox="0 0 24 24" fill="none" xmlns="http://www.w3.org/2000/svg">
  <defs>
    <linearGradient id="penGradient" x1="0%" y1="0%" x2="100%" y2="100%">
      <stop offset="0%" stop-color="#4F46E5" />
      <stop offset="100%" stop-color="#7C3AED" />
    </linearGradient>
  </defs>
  <!-- Pen-tool icon matching Lucide -->
  <path
    d="M15.707 21.293a1 1 0 0 1-1.414 0l-1.586-1.586a1 1 0 0 1 0-1.414l5.586-5.586a1 1 0 0 1 1.414 0l1.586 1.586a1 1 0 0 1 0 1.414z"
    stroke="url(#penGradient)"
    stroke-width="2"
    stroke-linecap="round"
    stroke-linejoin="round"
    fill="url(#penGradient)"
    fill-opacity="0.15"
  />
  <path
    d="m18 13-1.375-6.874a1 1 0 0 0-.746-.776L3.235 2.028a1 1 0 0 0-1.207 1.207L5.35 15.879a1 1 0 0 0 .776.746L13 18"
    stroke="url(#penGradient)"
    stroke-width="2"
    stroke-linecap="round"
    stroke-linejoin="round"
  />
  <path
    d="m2.3 2.3 7.286 7.286"
    stroke="url(#penGradient)"
    stroke-width="2"
    stroke-linecap="round"
    stroke-linejoin="round"
  />
  <circle
    cx="11"
    cy="11"
    r="2"
    stroke="url(#penGradient)"
    stroke-width="2"
    fill="url(#penGradient)"
    fill-opacity="0.15"
  />
</svg>
