<svg width="1200" height="630" viewBox="0 0 1200 630" fill="none" xmlns="http://www.w3.org/2000/svg">
  <defs>
    <linearGradient id="bgGradient" x1="0%" y1="0%" x2="100%" y2="100%">
      <stop offset="0%" style="stop-color:#4F46E5;stop-opacity:1" />
      <stop offset="50%" style="stop-color:#7C3AED;stop-opacity:1" />
      <stop offset="100%" style="stop-color:#EC4899;stop-opacity:1" />
    </linearGradient>
    <pattern id="pattern" width="60" height="60" patternUnits="userSpaceOnUse">
      <path d="M36 34v-4h-2v4h-4v2h4v4h2v-4h4v-2h-4zm0-30V0h-2v4h-4v2h4v4h2V6h4V4h-4zM6 34v-4H4v4H0v2h4v4h2v-4h4v-2H6zM6 4V0H4v4H0v2h4v4h2V6h4V4H6z" fill="white" fill-opacity="0.1"/>
    </pattern>
  </defs>

  <!-- Background -->
  <rect width="1200" height="630" fill="url(#bgGradient)"/>
  <rect width="1200" height="630" fill="url(#pattern)"/>

  <!-- Content Card -->
  <rect x="100" y="115" width="1000" height="400" rx="20" fill="white" fill-opacity="0.15"/>

  <!-- Icon - Book/Story Symbol -->
  <g transform="translate(500, 180)">
    <rect x="50" y="0" width="100" height="130" rx="8" fill="white" fill-opacity="0.9"/>
    <rect x="65" y="20" width="70" height="4" rx="2" fill="#4F46E5"/>
    <rect x="65" y="35" width="55" height="4" rx="2" fill="#7C3AED"/>
    <rect x="65" y="50" width="60" height="4" rx="2" fill="#4F46E5"/>
    <rect x="65" y="65" width="50" height="4" rx="2" fill="#7C3AED"/>
    <rect x="65" y="80" width="65" height="4" rx="2" fill="#4F46E5"/>
    <rect x="65" y="95" width="45" height="4" rx="2" fill="#7C3AED"/>
  </g>

  <!-- Main Title -->
  <text x="600" y="380" font-family="system-ui, -apple-system, BlinkMacSystemFont, 'Segoe UI', Roboto, sans-serif" font-size="56" font-weight="700" fill="white" text-anchor="middle">
    Testimony Pro
  </text>

  <!-- Subtitle -->
  <text x="600" y="440" font-family="system-ui, -apple-system, BlinkMacSystemFont, 'Segoe UI', Roboto, sans-serif" font-size="28" fill="white" fill-opacity="0.9" text-anchor="middle">
    Share Your Story of Faith and Transformation
  </text>

  <!-- URL -->
  <text x="600" y="570" font-family="system-ui, -apple-system, BlinkMacSystemFont, 'Segoe UI', Roboto, sans-serif" font-size="22" fill="white" fill-opacity="0.7" text-anchor="middle">
    testimony.pro
  </text>
</svg>
